<svg xmlns="http://www.w3.org/2000/svg" xmlns:xlink="http://www.w3.org/1999/xlink" width="500" zoomAndPan="magnify" viewBox="0 0 375 374.999991" height="500" preserveAspectRatio="xMidYMid meet" version="1.0"><defs><clipPath id="ff0832d7bd"><path d="M 37.5 37.5 L 332.167969 37.5 L 332.167969 332.167969 L 37.5 332.167969 Z M 37.5 37.5 " clip-rule="nonzero"/></clipPath><clipPath id="ffca631f95"><path d="M 184.835938 37.5 C 103.464844 37.5 37.5 103.464844 37.5 184.835938 C 37.5 266.203125 103.464844 332.167969 184.835938 332.167969 C 266.203125 332.167969 332.167969 266.203125 332.167969 184.835938 C 332.167969 103.464844 266.203125 37.5 184.835938 37.5 Z M 184.835938 37.5 " clip-rule="nonzero"/></clipPath><clipPath id="c79cb8d954"><path d="M 237 142 L 295.222656 142 L 295.222656 277.707031 L 237 277.707031 Z M 237 142 " clip-rule="nonzero"/></clipPath></defs><rect x="-37.5" width="450" fill="#ffffff" y="-37.499999" height="449.999989" fill-opacity="1"/><rect x="-37.5" width="450" fill="#ffffff" y="-37.499999" height="449.999989" fill-opacity="1"/><g clip-path="url(#ff0832d7bd)"><g clip-path="url(#ffca631f95)"><path fill="#ffffff" d="M 37.5 37.5 L 332.167969 37.5 L 332.167969 332.167969 L 37.5 332.167969 Z M 37.5 37.5 " fill-opacity="1" fill-rule="nonzero"/></g></g><path fill="#000000" d="M 169.210938 226.941406 C 167.710938 222.308594 166.507812 217.507812 162.386719 214.265625 C 160.339844 215.609375 159.804688 215.621094 157.246094 213.753906 C 150.984375 209.195312 145.375 203.945312 140.433594 197.980469 C 136.660156 193.433594 132.753906 188.980469 129.125 184.324219 C 126.433594 180.878906 124.074219 177.148438 121.539062 173.574219 C 120.585938 172.230469 119.894531 170.699219 118.230469 169.890625 C 117.382812 169.488281 117.003906 168.453125 117.003906 167.347656 C 117.003906 166.03125 117.5625 164.738281 117.253906 163.464844 C 116.789062 163.15625 116.539062 163.359375 116.253906 163.597656 C 113.039062 166.398438 110.714844 169.878906 108.621094 173.527344 C 107.667969 175.1875 106.789062 176.898438 105.800781 178.539062 C 105.203125 179.535156 105.238281 180.355469 106.050781 181.199219 C 108.953125 184.226562 111.429688 187.589844 113.90625 190.972656 C 116.289062 194.230469 118.085938 197.734375 119.3125 201.570312 C 120.074219 203.945312 121.445312 205.808594 123.96875 206.746094 C 126.183594 207.578125 128.410156 208.386719 130.636719 209.183594 C 133.289062 210.132812 134.253906 211.761719 133.8125 214.574219 C 133.539062 216.355469 133.492188 218.136719 133.648438 219.894531 C 133.835938 222.164062 135.171875 224.007812 136.578125 225.726562 C 140.96875 231.121094 146.519531 235.289062 151.660156 239.886719 C 155.960938 243.722656 160.019531 247.796875 163.710938 252.214844 C 164.03125 252.597656 164.542969 252.941406 164.449219 253.675781 C 162.996094 253.582031 162.136719 252.511719 161.234375 251.742188 C 155.507812 246.847656 149.863281 241.859375 144.171875 236.917969 C 141.015625 234.171875 137.898438 231.40625 135.136719 228.257812 C 131.824219 224.480469 130.265625 220.230469 131.230469 215.179688 C 131.777344 212.355469 130.980469 211.320312 127.835938 210.40625 C 125.660156 209.765625 123.527344 208.96875 121.515625 207.898438 C 119.621094 206.890625 118.894531 205.015625 118.121094 203.195312 C 116.015625 198.253906 113.359375 193.609375 110.214844 189.253906 C 108.429688 186.769531 106.5625 184.359375 104.453125 182.148438 C 103.300781 180.9375 103.25 179.441406 103.871094 178.3125 C 106.511719 173.476562 109.0625 168.550781 113.191406 164.710938 C 113.894531 164.058594 114.777344 163.714844 115.46875 163.191406 C 112.847656 159.925781 110.789062 156.433594 109.527344 152.429688 C 108.644531 149.664062 107.621094 146.945312 106.5 144.257812 C 105.203125 141.136719 104.179688 137.941406 104.0625 134.578125 C 103.976562 131.941406 104.429688 129.351562 107.121094 127.84375 C 108.121094 127.285156 108.691406 126.3125 108.667969 125.148438 C 108.632812 123.640625 108.859375 122.203125 109.289062 120.765625 C 110.050781 118.210938 108.789062 116.039062 107.941406 113.804688 C 107.550781 112.757812 106.90625 111.796875 106.359375 110.800781 C 105.347656 108.957031 105.5625 106.988281 106.15625 105.179688 C 107.5625 100.976562 109.050781 96.808594 111.992188 93.328125 C 114.679688 90.144531 117.691406 87.53125 121.90625 86.605469 C 122.324219 86.511719 122.71875 86.238281 123.085938 85.988281 C 126.195312 83.910156 129.457031 82.078125 132.765625 80.355469 C 135.074219 79.15625 137.671875 78.707031 140.195312 78.457031 C 142.53125 78.21875 144.753906 77.566406 147.066406 77.304688 C 148.507812 77.136719 149.921875 77.101562 151.351562 77.363281 C 155.578125 78.160156 159.757812 79.050781 163.6875 80.878906 C 165.472656 81.710938 167.339844 82.398438 169.054688 83.351562 C 170.554688 84.183594 172.164062 84.667969 173.746094 85.167969 C 176.640625 86.082031 178.9375 87.722656 180.808594 90.039062 C 183.035156 92.792969 184.820312 95.859375 187.09375 98.589844 C 189 100.859375 188.949219 103.921875 189.546875 106.691406 C 190.523438 111.25 189.617188 115.964844 190.699219 120.527344 C 190.878906 121.289062 190.699219 121.539062 189.878906 122.640625 C 191.675781 122.546875 192.820312 123.617188 193.152344 125.398438 C 193.703125 128.402344 193.5 131.394531 193.105469 134.390625 C 192.976562 135.398438 192.4375 136.253906 191.988281 137.121094 C 190.285156 140.375 189.84375 143.925781 189.238281 147.464844 C 188.84375 149.746094 188.4375 151.980469 188.640625 154.332031 C 188.84375 156.835938 188.355469 159.34375 188.175781 161.863281 C 188.070312 163.324219 188.320312 164.808594 188.390625 166.28125 C 188.425781 167.265625 188.355469 168.242188 188.117188 169.214844 C 186.949219 174 186.308594 178.917969 184.761719 183.585938 C 183.378906 187.742188 180.925781 191.234375 177.257812 193.777344 C 176.734375 194.132812 176.246094 194.550781 175.542969 195.097656 C 180.425781 195.964844 184.867188 197.554688 189.414062 198.765625 C 194.464844 200.109375 199.476562 201.617188 204.488281 203.101562 C 207.882812 204.109375 210.109375 206.390625 210.941406 209.800781 C 211.394531 211.664062 212.011719 213.46875 212.429688 215.359375 C 213.324219 219.398438 214.679688 223.328125 215.585938 227.367188 C 216.050781 229.433594 216.511719 231.511719 217.097656 233.53125 C 217.75 235.777344 218.929688 237.878906 219.917969 240.015625 C 222.144531 244.828125 224.347656 249.648438 226.667969 254.425781 C 227.335938 255.804688 227.800781 257.265625 228.515625 258.617188 C 229.003906 259.542969 229.039062 260.484375 228.71875 261.503906 C 227.277344 261.621094 226.941406 260.375 226.550781 259.589844 C 224.394531 255.28125 222.394531 250.886719 220.324219 246.527344 C 218.515625 242.703125 216.609375 238.914062 214.90625 235.039062 C 213.046875 230.8125 211.359375 226.5 209.609375 222.222656 C 208.359375 219.171875 207.15625 216.109375 205.894531 213.054688 C 205.714844 212.617188 205.34375 212.246094 204.964844 211.699219 C 204.191406 213.160156 204.058594 214.660156 203.953125 216.058594 C 203.679688 219.671875 202.796875 223.164062 201.988281 226.65625 C 201.5 228.746094 201.882812 230.410156 203.226562 232 C 204.296875 233.28125 205.371094 234.589844 206.273438 235.992188 C 208.25 239.03125 208.417969 242.558594 208.964844 246.015625 C 209.808594 251.382812 209.976562 256.8125 210.90625 262.167969 C 211.261719 264.234375 211.226562 266.398438 211.535156 268.5 C 211.574219 268.726562 211.597656 269 211.058594 269.199219 C 210.585938 267.3125 209.988281 265.460938 209.703125 263.570312 C 209.511719 262.300781 209.25 261.050781 209.058594 259.78125 C 208.382812 255.195312 207.597656 250.648438 207.179688 246.015625 C 206.773438 241.40625 205.667969 236.941406 202.117188 233.554688 C 199.628906 231.179688 199.628906 228.304688 200.453125 225.347656 C 201.773438 220.597656 202.59375 215.738281 203.714844 210.941406 C 203.90625 210.121094 203.773438 208.816406 204.761719 208.695312 C 205.832031 208.566406 206.726562 209.398438 207.394531 210.359375 C 208.285156 211.664062 208.726562 213.1875 209.585938 214.515625 C 208.609375 212.34375 208.535156 209.859375 207.191406 207.804688 C 206.5 206.757812 205.441406 206.140625 204.355469 205.738281 C 202.058594 204.859375 199.691406 204.148438 197.34375 203.398438 C 195.046875 202.671875 192.75 201.914062 190.414062 201.320312 C 186.34375 200.273438 182.449219 198.707031 178.472656 197.386719 C 177.652344 197.113281 177.152344 196.070312 175.914062 196.496094 C 175.746094 199.3125 175.996094 202.210938 175.9375 205.109375 C 175.855469 208.839844 178.414062 211.167969 180.449219 213.683594 C 182.734375 216.523438 185.035156 219.351562 187.1875 222.285156 C 190.476562 226.761719 193.511719 231.417969 196.296875 236.226562 C 198.964844 240.8125 201.582031 245.421875 203.976562 250.148438 C 205.632812 253.402344 207.261719 256.667969 208.25 260.171875 C 209.046875 262.976562 210.144531 265.769531 209.597656 268.878906 C 207 262.453125 204.382812 256.050781 201.191406 249.898438 C 197.953125 243.652344 194.679688 237.417969 190.890625 231.464844 C 187.164062 225.609375 183.652344 219.597656 178.925781 214.410156 C 174.734375 218.113281 170.484375 217.117188 166.03125 215.882812 C 168.4375 218.234375 169.128906 221.394531 170.328125 224.292969 C 171.4375 226.953125 173.054688 229.292969 174.675781 231.644531 C 177.269531 235.410156 179.84375 239.1875 182.484375 242.914062 C 184.773438 246.132812 186.855469 249.449219 188.820312 252.867188 C 191.1875 256.992188 192.890625 261.375 194.261719 265.910156 C 194.402344 266.375 194.425781 266.882812 194.164062 267.371094 C 193.402344 267.453125 193.308594 266.8125 193.105469 266.363281 C 191.152344 261.777344 188.726562 257.453125 186.238281 253.140625 C 182.222656 246.195312 177.425781 239.742188 173.007812 233.058594 C 172.605469 232.4375 172.378906 231.703125 171.6875 231.179688 C 171.605469 231.121094 171.617188 231.132812 171.59375 231.027344 C 170.867188 229.566406 170.257812 228.140625 169.222656 226.964844 Z M 170.902344 132.085938 C 170.734375 132.335938 170.566406 132.59375 170.234375 132.964844 C 168.640625 134.675781 168.734375 139.046875 169.734375 140.863281 C 171.84375 144.652344 176.414062 146.242188 180.496094 143.855469 C 183.390625 142.15625 185.210938 138.570312 184.472656 135.445312 C 183.652344 131.964844 181.296875 129.375 177.34375 129.304688 C 174.9375 129.269531 172.425781 129.425781 170.890625 132.085938 Z M 117.621094 142.429688 C 117.992188 141.992188 117.96875 141.289062 118.632812 141.101562 C 118.371094 140.648438 118.085938 140.339844 117.980469 139.984375 C 117.335938 137.644531 116.203125 135.480469 115.621094 133.105469 C 115.230469 131.480469 114.097656 130.125 112.726562 129.089844 C 110.894531 127.703125 107.476562 128.472656 106.429688 130.671875 C 109.597656 129.339844 110.691406 132.441406 112.917969 133.25 C 112.453125 133.9375 111.8125 133.914062 111.277344 134.09375 C 109.226562 134.746094 108.738281 135.625 109.132812 137.726562 C 109.324219 138.734375 109.90625 139.675781 109.777344 140.753906 C 109.726562 141.113281 109.691406 141.480469 109.265625 141.539062 C 108.90625 141.585938 108.644531 141.492188 108.40625 141.136719 C 106.40625 138.226562 106.859375 134.625 109.550781 132.570312 C 109.265625 131.90625 108.585938 131.65625 108.027344 131.539062 C 106.300781 131.171875 105.691406 131.417969 105.476562 132.988281 C 105.121094 135.683594 105.800781 138.164062 106.714844 140.613281 C 107.691406 143.238281 108.800781 145.816406 109.703125 148.464844 C 111.191406 152.8125 113.074219 156.945312 115.730469 160.710938 C 115.96875 161.042969 116.21875 161.328125 116.621094 161.445312 C 118.417969 162.003906 121.789062 159.320312 121.445312 157.445312 C 120.96875 154.902344 120.765625 152.277344 119.371094 149.960938 C 118.539062 148.570312 117.824219 147.097656 117.679688 145.433594 C 117.597656 144.507812 117.492188 143.582031 117.441406 142.597656 C 117.441406 142.597656 117.503906 142.535156 117.632812 142.417969 Z M 147.589844 84.480469 C 145.480469 84.964844 143.445312 85.632812 141.21875 85.785156 C 137.433594 86.046875 133.695312 86.902344 130.242188 88.601562 C 126.457031 90.464844 123.433594 93.222656 120.90625 96.605469 C 118.800781 99.433594 118.765625 99.492188 122.003906 100.976562 C 123.144531 101.5 124.003906 102.332031 124.039062 103.660156 C 124.0625 104.597656 124.433594 105.347656 124.789062 106.167969 C 125.46875 107.710938 125.683594 109.242188 124.457031 110.726562 C 123.0625 112.414062 123.085938 113.984375 124.480469 115.871094 C 125.695312 117.523438 125.597656 119.222656 124.644531 120.835938 C 123.277344 123.164062 122.8125 125.550781 123.371094 128.199219 C 123.585938 129.199219 123.910156 130.207031 123.777344 131.265625 C 123.683594 132.023438 124.171875 132.453125 124.765625 132.773438 C 127.148438 134.078125 129.359375 135.660156 131.410156 137.417969 C 133.324219 139.070312 135.410156 139.058594 137.648438 138.558594 C 138.21875 138.425781 138.386719 138.023438 138.550781 137.511719 C 138.886719 136.433594 139.125 135.257812 139.730469 134.339844 C 142.078125 130.824219 145.148438 128.378906 149.613281 128.128906 C 152.792969 127.949219 155.496094 128.902344 157.734375 131.253906 C 158.425781 131.976562 158.6875 132.964844 159.4375 133.59375 C 161.734375 132.535156 164.140625 133.082031 166.484375 133.09375 C 167.199219 133.09375 167.53125 133.046875 168.007812 132.40625 C 170.292969 129.316406 172.972656 126.761719 177.257812 127.035156 C 177.605469 127.058594 177.949219 126.976562 178.296875 126.953125 C 174.710938 126.21875 171.628906 127.75 168.246094 129.28125 C 171.257812 124.304688 180.9375 123.699219 184.261719 127.9375 C 184.117188 128.570312 183.367188 128.210938 183.023438 128.722656 C 184.914062 129.992188 186.046875 131.8125 186.75 133.914062 C 186.988281 134.625 187.34375 134.722656 188 134.28125 C 186.808594 133.367188 186.472656 132.097656 186.425781 130.730469 C 186.175781 124.421875 185.617188 118.140625 184.949219 111.855469 C 184.617188 108.699219 183.570312 105.964844 181.496094 103.566406 C 180.308594 102.1875 179.128906 100.679688 178.769531 98.886719 C 178.4375 97.234375 177.6875 95.988281 176.582031 94.835938 C 175.28125 93.492188 173.984375 92.152344 172.722656 90.773438 C 169.914062 87.710938 166.984375 84.871094 163.113281 83.042969 C 161.1875 82.128906 159.507812 81.84375 157.328125 81.949219 C 153.898438 82.113281 150.816406 82.875 147.613281 84.453125 Z M 166.664062 161.054688 C 165.378906 161.671875 163.972656 162.242188 162.710938 161.339844 C 161.28125 160.316406 159.722656 159.808594 158.066406 159.523438 C 156.613281 159.273438 155.699219 158.394531 154.910156 157.289062 C 153.792969 155.710938 152.722656 155.636719 151.722656 157.265625 C 150.746094 158.855469 149.671875 160.414062 149.042969 162.195312 C 147.078125 167.695312 141.804688 167.90625 138.46875 164.582031 C 137.492188 163.609375 136.503906 162.632812 135.574219 161.613281 C 133.421875 159.203125 131.46875 156.625 129.039062 154.4375 C 125.609375 151.339844 122.121094 148.25 121.207031 143.367188 C 121.109375 142.871094 120.8125 142.417969 120.195312 142.476562 C 119.597656 142.535156 119.382812 142.988281 119.347656 143.535156 C 119.277344 144.722656 119.289062 145.886719 119.929688 146.980469 C 120.597656 148.121094 121.132812 149.332031 121.71875 150.519531 C 122.695312 152.464844 122.800781 154.582031 123.0625 156.695312 C 123.5625 160.746094 124.039062 164.808594 125.230469 168.75 C 126.015625 171.386719 126.859375 173.917969 129.050781 175.769531 C 129.800781 176.398438 130.5625 177.03125 131.300781 177.671875 C 135.71875 181.484375 139.648438 185.820312 144.125 189.5625 C 145.363281 190.59375 146.542969 191.6875 147.933594 192.554688 C 150.398438 194.085938 153.171875 194.894531 155.886719 195.714844 C 158.199219 196.414062 160.484375 197.449219 163.078125 197.234375 C 165.140625 197.066406 167.054688 196.496094 169.03125 196.046875 C 176.117188 194.453125 180.855469 190.105469 183.296875 183.421875 C 185.035156 178.65625 185.808594 173.585938 186.84375 168.632812 C 187.4375 165.78125 187.082031 162.753906 186.820312 159.402344 C 185.820312 161.207031 185.855469 162.90625 185.023438 164.332031 C 184.570312 165.105469 184.355469 166.054688 183.332031 166.183594 C 182.234375 166.328125 181.785156 165.367188 181.320312 164.664062 C 179.6875 162.207031 178.164062 159.785156 175.054688 158.761719 C 173.269531 158.179688 172.949219 157.90625 171.804688 159.414062 C 171.007812 160.484375 170.078125 160.972656 168.734375 160.601562 C 168.101562 160.425781 167.449219 160.566406 166.675781 161.054688 Z M 162.101562 136.574219 C 160.734375 136.71875 160.019531 137.285156 160.007812 138.84375 C 160.007812 140.03125 159.734375 141.253906 159.113281 142.394531 C 157.53125 145.304688 155.234375 147.417969 152.101562 148.378906 C 149.375 149.222656 146.578125 149.234375 143.875 147.917969 C 141.410156 146.71875 139.777344 144.875 138.992188 142.289062 C 138.707031 141.324219 138.242188 141.003906 137.160156 141.171875 C 135.074219 141.480469 132.957031 141.347656 131.160156 140.113281 C 129.207031 138.773438 127.335938 137.3125 125.277344 136.136719 C 124.289062 135.566406 123.480469 134.625 122.171875 134.496094 C 121.433594 136.574219 122.550781 138.785156 121.46875 140.730469 C 121.433594 140.789062 121.597656 140.980469 121.683594 141.101562 C 122.230469 141.847656 122.382812 142.726562 122.574219 143.59375 C 123.085938 145.992188 124.359375 147.953125 126.074219 149.652344 C 129.097656 152.632812 132.457031 155.246094 135.171875 158.570312 C 137.050781 160.875 139.039062 163.167969 141.742188 164.628906 C 143.851562 165.757812 145.542969 165.304688 146.792969 163.300781 C 148.195312 161.042969 149.246094 158.59375 151.078125 156.589844 C 152.851562 154.652344 154.222656 154.507812 155.734375 156.601562 C 156.757812 158.027344 158.136719 158.546875 159.710938 158.890625 C 160.519531 159.070312 161.4375 159 162.101562 159.582031 C 163.542969 160.828125 165.007812 160.566406 166.507812 159.773438 C 167.269531 159.367188 168.007812 159.117188 168.914062 159.320312 C 169.914062 159.546875 170.054688 159.390625 170.53125 158.132812 C 168.402344 159.355469 166.019531 157.988281 163.925781 159.023438 C 163.78125 159.09375 163.519531 159.023438 163.339844 158.941406 C 161.484375 158.179688 159.828125 156.863281 157.613281 157.097656 C 158.949219 156.054688 160.28125 156.066406 161.699219 156.660156 C 162.636719 157.050781 163.542969 157.621094 164.675781 157.242188 C 165.542969 156.945312 166.460938 156.515625 167.164062 157.667969 C 167.390625 158.050781 167.925781 157.777344 168.269531 157.65625 C 170.472656 156.921875 173.507812 153.820312 172.128906 150.53125 C 171.84375 149.855469 171.367188 149.128906 171.640625 148.214844 C 173.164062 148.535156 173.234375 149.914062 173.699219 150.886719 C 174.710938 153.023438 173.925781 154.878906 172.082031 156.707031 C 177.617188 157.171875 180.808594 160.328125 183.152344 165.105469 C 186.75 155.863281 189.164062 146.992188 187.988281 137.5 C 187.25 137.597656 187.210938 137.582031 186.902344 138.6875 C 185.785156 142.644531 183.402344 145.316406 179.449219 146.8125 C 173.949219 148.878906 166.566406 144.484375 166.710938 138.128906 C 166.710938 137.65625 166.828125 137.132812 166.328125 136.574219 C 165.054688 137.0625 163.710938 136.445312 162.089844 136.574219 Z M 123.585938 106.296875 C 123.480469 106.074219 123.300781 105.847656 123.300781 105.621094 C 123.230469 103.007812 121.824219 101.546875 119.394531 100.738281 C 118.585938 100.476562 117.882812 99.621094 118.40625 98.578125 C 119.21875 96.949219 120.015625 95.300781 121.207031 93.886719 C 125.921875 88.304688 132.074219 85.476562 139.21875 84.667969 C 142.921875 84.253906 146.53125 83.777344 149.984375 82.199219 C 151.839844 81.34375 153.910156 80.738281 156.054688 81.117188 C 157.113281 81.308594 157.949219 80.988281 158.851562 80.464844 C 158.292969 79.394531 157.304688 79.847656 156.566406 79.65625 C 152.113281 78.503906 147.625 78.066406 143.078125 79.191406 C 141.933594 79.476562 140.742188 79.667969 139.566406 79.761719 C 137.015625 79.953125 134.601562 80.640625 132.375 81.855469 C 130.421875 82.910156 128.585938 84.15625 126.671875 85.261719 C 125.085938 86.164062 123.71875 87.449219 121.980469 88.042969 C 119.550781 88.875 117.40625 90.179688 115.527344 91.855469 C 111.417969 95.523438 109.132812 100.335938 107.527344 105.464844 C 107.011719 107.09375 106.65625 108.910156 107.65625 110.503906 C 108.382812 111.644531 108.859375 112.878906 109.371094 114.089844 C 110.476562 116.667969 111.179688 119.328125 110.191406 122.144531 C 109.738281 123.425781 109.777344 124.769531 109.789062 126.109375 C 109.789062 126.789062 110.050781 127.132812 110.753906 127.109375 C 112.203125 127.058594 113.277344 127.878906 114.347656 128.675781 C 114.621094 128.878906 114.800781 129.210938 115.191406 129.199219 C 116.980469 129.128906 118.574219 129.734375 120.15625 130.492188 C 120.765625 130.777344 121.46875 131.132812 122.21875 131.0625 C 122.621094 130.113281 122.207031 129.316406 121.945312 128.558594 C 120.957031 125.636719 121.871094 123 123.242188 120.515625 C 124.003906 119.136719 124.195312 117.75 123.242188 116.441406 C 121.980469 114.683594 121.753906 112.082031 123.027344 110.632812 C 124.171875 109.328125 124.300781 108.042969 123.585938 106.332031 Z M 154.671875 208.933594 C 156.125 210.039062 157.554688 211.167969 159.019531 212.257812 C 160.089844 213.054688 160.589844 212.839844 160.78125 211.570312 C 160.863281 211.035156 160.960938 210.5 161.078125 209.980469 C 161.722656 207.269531 161.53125 204.480469 161.949219 201.746094 C 162.175781 200.285156 162.816406 199.609375 164.210938 199.539062 C 164.902344 199.503906 165.589844 199.46875 166.269531 199.359375 C 167.460938 199.183594 168.519531 199.40625 169.414062 200.25 C 170.792969 201.546875 172.175781 202.816406 173.710938 204.242188 C 174.128906 201.34375 173.496094 198.5625 174.164062 195.867188 C 174.054688 195.867188 173.960938 195.855469 173.890625 195.878906 C 169.414062 197.746094 164.816406 198.859375 159.914062 198.601562 C 158.210938 198.503906 156.769531 197.769531 155.199219 197.386719 C 152.410156 196.710938 149.683594 195.84375 147.230469 194.359375 C 143.445312 192.066406 140.289062 188.96875 137.160156 185.914062 C 133.335938 182.183594 129.242188 178.789062 125.265625 175.210938 C 133.824219 187.433594 143.148438 199.003906 154.660156 208.957031 Z M 156.6875 140.933594 C 158.210938 136.382812 156.839844 133.011719 152.886719 131.171875 C 149.863281 129.757812 144.253906 130.457031 142.816406 133.890625 C 146.542969 131.492188 151.078125 132.261719 154.183594 134.613281 C 154.589844 134.921875 155.148438 135.363281 154.722656 135.96875 C 154.339844 136.515625 153.746094 136.300781 153.222656 136.109375 C 152.269531 135.765625 151.496094 135.019531 150.386719 134.828125 C 150.316406 135.148438 150.292969 135.386719 150.207031 135.613281 C 149.648438 137.109375 147.519531 138.832031 146.054688 138.710938 C 144.503906 138.59375 143.195312 138.023438 142.792969 136.230469 C 142.613281 135.421875 141.945312 135.480469 141.421875 136.015625 C 140.398438 137.050781 140.992188 138.476562 142.695312 138.914062 C 145.269531 139.566406 147.792969 139.316406 150.195312 138.203125 C 151.304688 137.691406 152.398438 137.15625 153.542969 136.609375 C 154.136719 137.882812 153.433594 138.511719 152.625 139.019531 C 150.851562 140.160156 148.839844 140.636719 146.78125 140.957031 C 144.636719 141.289062 142.753906 140.566406 140.910156 139.542969 C 140.503906 142.144531 143.042969 145.445312 145.683594 146.089844 C 150.148438 147.179688 154.460938 145.519531 156.671875 140.921875 Z M 174.804688 209.253906 C 174.757812 208.816406 174.832031 208.246094 174.292969 208.136719 C 173.304688 207.9375 172.855469 207.152344 172.257812 206.511719 C 171.117188 205.273438 169.902344 204.109375 168.890625 202.78125 C 167.664062 201.1875 166.128906 201.472656 164.601562 201.878906 C 163.328125 202.210938 163.6875 203.480469 163.542969 204.382812 C 163.375 205.394531 163.425781 206.449219 163.363281 207.484375 C 163.292969 208.800781 163.589844 210.167969 163.101562 211.453125 C 162.757812 212.355469 163.164062 212.78125 163.902344 213.199219 C 167.828125 215.453125 171.996094 215.796875 176.332031 214.789062 C 177.820312 214.445312 177.960938 213.898438 176.972656 212.675781 C 176.164062 211.6875 175.308594 210.714844 174.820312 209.253906 Z M 188.523438 117.09375 C 188.488281 113.246094 188.34375 109.398438 187.558594 105.609375 C 186.972656 102.828125 186.867188 99.894531 184.546875 97.792969 C 183.460938 96.820312 182.820312 95.535156 182.128906 94.289062 C 179.949219 90.3125 177.019531 87.175781 172.460938 85.914062 C 171.84375 85.75 171.257812 85.59375 170.449219 85.988281 C 171.867188 87.53125 173.175781 88.96875 174.472656 90.40625 C 176.164062 92.257812 178.175781 93.804688 179.496094 96.023438 C 180.082031 97.023438 179.890625 98.136719 180.4375 99.113281 C 181.234375 100.539062 182.1875 101.855469 183.164062 103.152344 C 184.652344 105.132812 185.902344 107.164062 186.082031 109.789062 C 186.238281 111.953125 186.425781 114.113281 186.640625 116.273438 C 187.070312 120.585938 187.832031 124.875 187.664062 129.234375 C 187.652344 129.589844 187.449219 130.042969 187.960938 130.457031 C 187.960938 128.675781 187.9375 126.988281 187.960938 125.3125 C 187.988281 124.066406 188.09375 122.808594 188.808594 121.75 C 189.308594 121.015625 189.355469 120.324219 189.09375 119.519531 C 188.867188 118.816406 188.738281 118.082031 188.511719 117.09375 Z M 120.539062 162.027344 C 120.144531 162.8125 119.179688 162.765625 118.550781 163.3125 C 118.800781 164.414062 119.277344 165.449219 119.277344 166.601562 C 119.300781 168.941406 121.289062 171.019531 123.992188 171.375 C 122.765625 168.074219 122.480469 164.652344 121.46875 161.246094 C 121.109375 161.515625 120.882812 161.695312 120.527344 162.015625 Z M 118.980469 137.667969 C 119.132812 138.226562 119.289062 138.796875 119.515625 139.640625 C 121.980469 138.367188 120.695312 136.148438 120.917969 134.554688 C 121.21875 132.5 118.667969 133.308594 117.765625 132.273438 C 118.144531 133.996094 118.539062 135.707031 118.980469 137.65625 Z M 190.355469 136.46875 C 188.320312 138.035156 189.082031 140.222656 189.09375 142.265625 C 189.09375 140.113281 190.175781 138.414062 191.238281 136.667969 C 191.808594 135.742188 192.1875 134.328125 191.605469 133.546875 C 190.414062 131.953125 190.726562 130.230469 190.546875 128.53125 C 190.488281 127.988281 190.546875 127.40625 189.714844 126.835938 C 190.035156 128.769531 190.355469 130.410156 190.570312 132.0625 C 190.75 133.449219 191.238281 134.875 190.367188 136.457031 Z M 191.535156 125.289062 C 190.902344 124.136719 190.296875 124.28125 189.582031 125.410156 C 190.523438 125.492188 191.140625 125.980469 191.785156 127.046875 C 191.703125 126.230469 191.652344 125.847656 191.535156 125.289062 Z M 191.535156 125.289062 " fill-opacity="1" fill-rule="nonzero"/><g clip-path="url(#c79cb8d954)"><path fill="#000000" d="M 250.980469 170.175781 C 252.027344 166.304688 254.21875 163.25 256.71875 160.339844 C 258.160156 158.679688 259.839844 157.230469 261.078125 155.386719 C 261.660156 154.523438 262.625 154.1875 263.601562 153.65625 C 261.996094 152.015625 260.292969 150.53125 259.160156 148.546875 C 258.648438 147.644531 258.125 146.753906 257.671875 145.828125 C 257.21875 144.875 256.730469 143.726562 257.613281 142.941406 C 258.519531 142.121094 259.78125 142.335938 260.804688 142.964844 C 262.851562 144.234375 264.863281 145.578125 266.898438 146.882812 C 267.851562 147.5 268.660156 147.941406 269.269531 146.363281 C 269.6875 145.28125 270.839844 144.757812 271.9375 144.390625 C 273.914062 143.726562 275.804688 144.332031 277.519531 145.175781 C 278.855469 145.839844 279.328125 147.203125 278.972656 148.726562 C 278.804688 149.402344 278.890625 149.792969 279.710938 150.007812 C 280.746094 150.269531 281.734375 150.757812 282.855469 151.195312 C 283.6875 150.566406 284.449219 149.605469 285.792969 149.640625 C 287.59375 149.6875 290.007812 151.539062 290.722656 153.628906 C 291.199219 155.019531 291.9375 156.339844 292.023438 157.859375 C 292.046875 158.261719 292.296875 158.621094 292.652344 158.832031 C 294.640625 160.03125 295.140625 162.085938 295.152344 164.082031 C 295.1875 168.824219 294.355469 173.347656 292.402344 177.835938 C 288.9375 185.773438 283.949219 192.804688 279.867188 200.359375 C 278.140625 203.539062 275.890625 206.449219 273.804688 209.445312 C 273.175781 210.359375 272.960938 211.296875 272.925781 212.355469 C 272.78125 216.75 272.636719 221.144531 272.4375 225.539062 C 272.402344 226.226562 272.664062 226.570312 273.234375 226.761719 C 275.914062 227.664062 277.890625 229.433594 279.316406 231.808594 C 280.390625 233.601562 280.890625 235.632812 281.234375 237.675781 C 281.414062 238.757812 281.578125 239.660156 282.902344 239.921875 C 283.878906 240.113281 284.117188 241.167969 284.554688 241.871094 C 285.484375 243.367188 286.34375 244.945312 286.972656 246.597656 C 287.414062 247.738281 288.152344 248.511719 288.996094 249.257812 C 291.257812 251.277344 292.449219 253.878906 293.105469 256.753906 C 293.378906 257.953125 293.058594 259.105469 292.390625 260.160156 C 291.558594 261.480469 290.710938 262.796875 289.890625 264.128906 C 289.757812 264.332031 289.617188 264.582031 289.628906 264.792969 C 289.785156 267.515625 288.757812 270.042969 288.320312 272.65625 C 288.046875 274.308594 287.472656 276.042969 285.617188 277.382812 C 285.484375 275.019531 285.757812 273.109375 286.234375 271.207031 C 286.984375 268.25 287.769531 265.304688 288.53125 262.347656 C 288.746094 261.515625 289.210938 260.792969 289.699219 260.136719 C 291.558594 257.65625 291.605469 255.183594 289.722656 252.703125 C 289.484375 253.191406 289.628906 253.652344 289.710938 254.117188 C 290.449219 257.976562 288.984375 260.269531 285.152344 261.195312 C 283.34375 261.632812 281.507812 261.574219 279.6875 261.3125 C 272.652344 260.304688 266.410156 257.40625 260.589844 253.449219 C 255.457031 249.957031 250.707031 246.0625 246.933594 241.109375 C 245.777344 239.601562 244.910156 237.878906 243.800781 236.0625 C 243.351562 240.789062 242.410156 245.289062 241.898438 249.875 C 241.398438 254.355469 240.683594 258.867188 238.695312 263.023438 C 238.3125 263.820312 238.492188 264.972656 237.171875 265.363281 C 236.847656 263.640625 237.027344 261.980469 237.300781 260.304688 C 238.21875 254.769531 239.027344 249.210938 240.027344 243.6875 C 240.648438 240.253906 242.074219 236.941406 242.660156 233.589844 C 243.289062 229.992188 244.742188 226.308594 243.613281 222.402344 C 242.824219 219.660156 242.921875 216.738281 242.945312 213.863281 C 242.980469 209.015625 242.886719 204.160156 242.980469 199.3125 C 243.0625 195.453125 243.957031 191.710938 244.945312 187.980469 C 246.101562 183.632812 248.242188 179.65625 249.625 175.402344 C 250.171875 173.714844 250.183594 171.886719 251.003906 170.152344 Z M 292.296875 172.894531 C 292.449219 172.277344 292.617188 171.648438 292.761719 171.03125 C 293.210938 169.070312 293.105469 168.894531 291.175781 168.253906 C 290.890625 168.15625 290.59375 168.085938 290.628906 167.671875 C 291.105469 167.300781 291.664062 167.492188 292.1875 167.480469 C 292.832031 167.457031 293.234375 167.277344 293.222656 166.554688 C 293.199219 165.019531 293.390625 163.511719 293.058594 161.96875 C 292.722656 160.414062 291.664062 159.773438 290.332031 159.402344 C 289.09375 159.058594 288.1875 159.664062 287.699219 160.769531 C 287.09375 162.136719 286.558594 163.691406 287.53125 164.972656 C 289.09375 167.027344 289.6875 169.238281 289.320312 171.875 C 288.1875 173.230469 286.84375 173.941406 285.007812 173.515625 C 284.34375 173.359375 283.722656 173.527344 283.59375 174.394531 C 283.542969 174.726562 283.449219 175.070312 282.996094 175.140625 C 282.902344 175.035156 282.769531 174.9375 282.734375 174.808594 C 282.640625 174.476562 282.554688 174.144531 282.554688 173.8125 C 282.554688 173.265625 282.34375 172.871094 281.925781 172.539062 C 278.9375 170.128906 276.414062 167.253906 273.851562 164.425781 C 272.652344 163.109375 271.816406 161.46875 270.210938 160.222656 C 270.53125 162.445312 269.636719 164.058594 268.613281 165.675781 C 266.222656 169.429688 263.769531 173.15625 264.257812 177.945312 C 264.316406 178.492188 264.171875 179.109375 263.386719 179.511719 C 263.460938 178.417969 262.542969 177.753906 262.660156 176.710938 C 263.136719 172.386719 264.734375 168.523438 267.339844 165.058594 C 268.875 163.015625 269.613281 160.816406 268.519531 158.296875 C 267.769531 156.589844 266.484375 155.519531 264.695312 155.089844 C 263.257812 154.746094 262.363281 155.734375 261.566406 156.648438 C 259.851562 158.609375 258.207031 160.625 256.601562 162.667969 C 254.707031 165.082031 253.265625 167.71875 252.46875 170.734375 C 251.71875 173.585938 251.277344 176.542969 250.078125 179.25 C 247.945312 184.074219 246.027344 188.953125 245.300781 194.230469 C 244.863281 197.410156 244.3125 200.570312 244.363281 203.800781 C 244.421875 208.257812 244.160156 212.710938 244.683594 217.140625 C 245.101562 220.691406 244.480469 224.28125 246.636719 227.757812 C 248.753906 231.179688 251.21875 233.699219 254.933594 235.074219 C 258.683594 236.453125 262.613281 237.25 266.363281 238.664062 C 267.460938 239.078125 268.519531 239.886719 269.875 239.78125 C 271.339844 230.265625 270.519531 220.65625 271.875 211.167969 C 264.625 212.863281 258.898438 212.222656 258.019531 209.503906 C 258.875 209.777344 259.648438 210.003906 260.421875 210.25 C 263.769531 211.34375 267.078125 210.488281 270.398438 210.097656 C 271.636719 209.953125 272.554688 209.632812 273.113281 208.269531 C 273.722656 206.734375 274.804688 205.394531 275.652344 203.957031 C 277.914062 200.15625 280.152344 196.332031 282.402344 192.53125 C 284.582031 188.847656 286.78125 185.179688 288.960938 181.484375 C 290.402344 179.050781 291.058594 176.316406 291.960938 173.464844 C 292.058594 173.359375 292.164062 173.242188 292.34375 172.945312 Z M 267.910156 254.199219 C 270.960938 255.839844 274.101562 257.191406 277.460938 257.703125 C 277.710938 252.132812 279.496094 247.0625 279.722656 241.574219 C 275.257812 244.386719 270.898438 244.03125 266.519531 242.023438 C 263.460938 240.621094 260.148438 239.957031 256.957031 238.949219 C 254.457031 238.152344 252.027344 237.261719 249.742188 235.992188 C 247.992188 235.015625 246.671875 233.578125 245.492188 231.917969 C 244.539062 233.613281 244.527344 233.613281 245.398438 234.910156 C 245.910156 235.695312 246.421875 236.476562 246.992188 237.214844 C 252.601562 244.4375 259.769531 249.757812 267.921875 254.1875 Z M 278.304688 238.164062 C 278.378906 234.195312 275.757812 229.886719 272.351562 228.496094 C 272.03125 232 271.6875 235.457031 271.386719 238.925781 C 271.339844 239.496094 271.316406 240.113281 272.054688 240.410156 C 273.746094 241.0625 277.246094 239.933594 278.304688 238.164062 Z M 290.570312 156.71875 C 289.808594 154.792969 289.09375 152.871094 287.28125 151.601562 C 286.617188 151.136719 285.914062 150.769531 285.246094 151.183594 C 284.472656 151.660156 283.59375 152.335938 283.6875 153.371094 C 283.878906 155.339844 283.378906 157.074219 282.210938 158.632812 C 281.855469 159.105469 281.816406 159.523438 282.28125 159.925781 C 283.34375 160.828125 284.402344 161.730469 285.425781 162.609375 C 285.605469 162.46875 285.664062 162.445312 285.675781 162.410156 C 286.1875 159.925781 287.058594 157.824219 290.1875 157.917969 C 290.925781 157.941406 290.6875 157.371094 290.570312 156.730469 Z M 286.914062 254.875 C 285.808594 251.207031 284.199219 247.761719 282.234375 244.292969 C 281.855469 249.078125 281.292969 253.59375 279.972656 258.082031 C 281.734375 258.425781 283.28125 258.453125 284.84375 258.011719 C 286.332031 257.597656 287.175781 256.753906 286.914062 254.886719 Z M 277.746094 148.546875 C 277.867188 147.773438 277.769531 147.015625 277.1875 146.480469 C 274.863281 144.355469 270.699219 145.257812 269.410156 148.191406 C 271.210938 149.257812 272.78125 150.648438 274.578125 152.183594 C 274.902344 151.066406 275.746094 150.804688 276.414062 150.339844 C 276.996094 149.9375 277.496094 149.484375 277.734375 148.546875 Z M 282.222656 153.582031 C 281.960938 151.933594 280.59375 151.574219 279.316406 151.300781 C 277.628906 150.933594 276.589844 152.050781 275.292969 153.605469 C 276.769531 154.925781 278.1875 156.207031 279.617188 157.492188 C 280.042969 157.871094 280.472656 158.027344 280.855469 157.445312 C 281.578125 156.339844 282.507812 155.316406 282.222656 153.582031 Z M 286.1875 170.09375 C 285.652344 170.390625 285.320312 170.804688 285.320312 171.460938 C 286.414062 171.460938 287.128906 171.136719 287.175781 170.640625 C 287.222656 170.082031 286.808594 170.046875 286.199219 170.082031 Z M 286.1875 170.09375 " fill-opacity="1" fill-rule="nonzero"/></g><path fill="#000000" d="M 94.382812 238.652344 C 94.226562 239.53125 94.476562 240.324219 93.917969 241.039062 C 92.964844 235.480469 93.382812 229.789062 92.308594 224.242188 C 91.226562 218.695312 89.679688 213.292969 87.332031 208.125 C 88.570312 216.878906 86.878906 225.3125 84.902344 233.722656 C 84.414062 231.261719 84.664062 228.851562 85.058594 226.429688 C 86.285156 219.015625 86.582031 211.605469 85.179688 204.183594 C 84.546875 200.832031 83.476562 197.613281 82.140625 194.476562 C 82.023438 194.191406 81.902344 193.933594 81.453125 193.917969 C 80.925781 194.894531 81.203125 196.011719 81.058594 197.042969 C 80.308594 202.601562 80.4375 208.183594 80.773438 213.765625 C 81.082031 218.957031 80.84375 224.125 80.1875 229.304688 C 79.355469 235.871094 77.9375 242.296875 76.546875 248.746094 C 76.210938 250.28125 76.070312 251.835938 75.320312 253.523438 C 74.75 252.0625 75.320312 250.910156 75.511719 249.769531 C 76.5 243.890625 77.785156 238.058594 78.535156 232.140625 C 79.425781 225.132812 79.4375 218.101562 78.820312 211 C 78.296875 205.039062 78.035156 198.957031 79.617188 193.003906 C 80.105469 191.164062 81.414062 190.070312 82.808594 189.144531 C 85.714844 187.195312 88.820312 185.582031 91.953125 184.015625 C 94.644531 182.671875 97.308594 181.269531 99.976562 179.890625 C 100.238281 179.761719 100.476562 179.523438 100.75 179.464844 C 101.609375 179.296875 102.621094 178.964844 103.109375 180.023438 C 103.574219 181.03125 102.964844 181.636719 102.085938 182.148438 C 99.132812 183.847656 96.011719 185.203125 92.953125 186.675781 C 89.582031 188.300781 86.285156 190.058594 82.953125 191.769531 C 82.273438 192.125 82.203125 192.71875 82.570312 193.277344 C 84.535156 196.246094 85.582031 199.5625 86.332031 202.996094 C 86.703125 204.667969 87.808594 205.988281 88.617188 207.449219 C 91.40625 212.519531 93.15625 217.972656 94.15625 223.578125 C 95.035156 228.472656 94.988281 233.507812 94.382812 238.628906 Z M 94.382812 238.652344 " fill-opacity="1" fill-rule="nonzero"/><path fill="#000000" d="M 171.59375 231.109375 C 172.34375 233.355469 173.664062 235.324219 174.664062 237.453125 C 175.984375 240.242188 177.449219 242.976562 178.808594 245.765625 C 179.820312 247.84375 180.757812 249.945312 181.6875 252.0625 C 183.4375 256.039062 184.675781 260.171875 185.570312 264.414062 C 185.582031 264.484375 185.5 264.59375 185.460938 264.675781 C 185.058594 264.890625 184.902344 264.582031 184.796875 264.320312 C 183.511719 261.242188 182.273438 258.128906 180.9375 255.066406 C 180.09375 253.128906 179.128906 251.253906 178.222656 249.339844 C 175.378906 243.355469 172.414062 237.417969 170.054688 231.203125 C 169.640625 230.097656 169.117188 229.042969 168.867188 227.878906 C 168.792969 227.570312 168.566406 227.203125 169.117188 226.953125 C 169.210938 226.941406 169.210938 226.941406 169.246094 227.046875 C 169.9375 228.53125 170.496094 229.980469 171.605469 231.109375 Z M 171.59375 231.109375 " fill-opacity="1" fill-rule="nonzero"/><path fill="#000000" d="M 170.949219 132.011719 C 172.890625 131.0625 174.792969 130.503906 176.960938 130.5625 C 178.652344 130.613281 179.820312 131.527344 181.175781 132.15625 C 181.535156 132.320312 181.84375 132.582031 182.1875 132.761719 C 183.734375 133.582031 183.84375 134.390625 182.320312 135.386719 C 179.019531 137.535156 175.367188 138.414062 171.4375 137.855469 C 170.78125 137.761719 170.042969 137.691406 169.484375 136.8125 C 171.472656 136.300781 173.472656 136.871094 175.34375 136.324219 C 177.175781 135.789062 179.128906 135.589844 180.699219 134.351562 C 179.507812 132.988281 179.390625 132.988281 178.355469 134.246094 C 177.007812 135.875 174.03125 136.492188 172.128906 135.554688 C 171.617188 135.304688 171.4375 134.851562 171.304688 134.378906 C 171.152344 133.855469 171.054688 133.320312 170.449219 132.941406 C 170.542969 132.605469 170.722656 132.359375 170.9375 132.023438 Z M 170.949219 132.011719 " fill-opacity="1" fill-rule="nonzero"/><path fill="#000000" d="M 289.449219 171.839844 C 290.308594 172.207031 291.367188 172.207031 292.164062 173.015625 C 292.128906 173.207031 292.035156 173.3125 291.855469 173.503906 C 290.675781 173.503906 289.367188 173.726562 289.460938 171.839844 Z M 289.449219 171.839844 " fill-opacity="1" fill-rule="nonzero"/><path fill="#000000" d="M 141.316406 116.761719 C 145.613281 115.800781 149.757812 114.542969 154.136719 115.195312 C 155.03125 115.324219 155.875 115.492188 156.589844 116.289062 C 156.03125 116.761719 155.433594 116.609375 154.921875 116.453125 C 151.589844 115.457031 148.328125 116.324219 145.101562 116.929688 C 142.195312 117.464844 139.375 118.390625 136.515625 119.148438 C 136.136719 119.257812 135.753906 119.316406 135.3125 119.089844 C 137.136719 117.820312 139.304688 117.628906 141.328125 116.75 Z M 141.316406 116.761719 " fill-opacity="1" fill-rule="nonzero"/><path fill="#000000" d="M 171.59375 114.007812 C 173.34375 113.746094 174.949219 113.664062 176.582031 113.996094 C 177.402344 114.160156 178.007812 114.503906 178.59375 115.0625 C 178.140625 115.550781 177.664062 115.445312 177.28125 115.300781 C 174.355469 114.28125 171.472656 115.0625 168.675781 115.753906 C 166.066406 116.394531 163.414062 116.621094 160.792969 117.105469 C 160.210938 117.214844 159.542969 117.332031 158.6875 116.644531 C 163.136719 115.71875 167.292969 114.863281 171.578125 114.007812 Z M 171.59375 114.007812 " fill-opacity="1" fill-rule="nonzero"/><path fill="#000000" d="M 157.921875 121.667969 C 157.519531 121.289062 157.386719 121.027344 158.042969 121.074219 C 158.972656 121.144531 159.722656 121.667969 160.425781 122.191406 C 161.4375 122.925781 162.152344 122.664062 162.925781 121.808594 C 163.613281 121.039062 164.414062 120.347656 165.566406 120.183594 C 164.875 121.539062 163.460938 122.25 162.757812 123.605469 C 162.03125 125.027344 162.339844 126.585938 162.019531 128.296875 C 161.101562 127.15625 161.316406 126.027344 161.472656 125.054688 C 161.636719 123.9375 161.222656 123.4375 160.316406 123.023438 C 159.519531 122.652344 158.636719 122.402344 157.921875 121.679688 Z M 157.921875 121.667969 " fill-opacity="1" fill-rule="nonzero"/><path fill="#000000" d="M 141.101562 123.199219 C 141.253906 122.25 142.027344 122.367188 142.636719 122.355469 C 144.957031 122.308594 147.28125 122.320312 149.601562 122.332031 C 150.398438 122.332031 151.136719 122.5 151.863281 123.6875 C 148.078125 123.222656 144.625 123.355469 141.101562 123.199219 Z M 141.101562 123.199219 " fill-opacity="1" fill-rule="nonzero"/><path fill="#000000" d="M 137.171875 121.253906 C 138.707031 121.039062 139.828125 119.671875 141.765625 120.148438 C 139.21875 121.738281 136.550781 122.34375 134.101562 123.816406 C 134.320312 123.191406 135.347656 122.339844 137.171875 121.265625 Z M 137.171875 121.253906 " fill-opacity="1" fill-rule="nonzero"/><path fill="#000000" d="M 168.675781 123.605469 C 171.03125 122.273438 173.496094 122.179688 176.042969 122.441406 C 173.425781 123.105469 170.792969 123.78125 168.175781 124.445312 C 168.019531 123.925781 168.355469 123.816406 168.675781 123.605469 Z M 168.675781 123.605469 " fill-opacity="1" fill-rule="nonzero"/><path fill="#000000" d="M 170.542969 117.972656 C 172.582031 117.902344 174.449219 118.175781 176.28125 118.734375 C 173.867188 118.996094 171.472656 119.054688 168.78125 118.851562 C 169.425781 118.035156 169.960938 118.117188 170.542969 117.972656 Z M 170.542969 117.972656 " fill-opacity="1" fill-rule="nonzero"/><path fill="#000000" d="M 177.460938 168.144531 C 178.09375 168.203125 178.582031 168.289062 179.082031 168.324219 C 180.472656 168.40625 180.984375 169.226562 180.890625 170.507812 C 180.796875 171.78125 180.199219 172.421875 178.796875 172.433594 C 176.675781 172.457031 174.570312 171.933594 172.425781 172.363281 C 171.710938 172.503906 170.960938 172.527344 170.257812 172.789062 C 167.269531 173.929688 164.125 173.773438 161.019531 173.714844 C 158.898438 173.679688 156.769531 173.5625 154.699219 172.957031 C 153.304688 172.550781 152.101562 173.417969 150.804688 173.667969 C 150.269531 173.773438 149.746094 173.953125 149.195312 173.789062 C 148.804688 173.667969 148.496094 173.394531 148.386719 172.992188 C 148.257812 172.503906 148.578125 172.277344 148.945312 172.078125 C 149.933594 171.542969 150.921875 171.078125 151.542969 170 C 151.804688 169.535156 152.601562 169.273438 153.257812 169.238281 C 156.53125 169.046875 159.6875 168.277344 162.816406 167.363281 C 163.640625 167.125 164.390625 167.363281 165.164062 167.457031 C 169.199219 167.917969 173.257812 167.90625 177.449219 168.132812 Z M 173.140625 169.796875 C 173.710938 169.738281 174.304688 169.949219 175.019531 169.476562 C 171.757812 169.355469 168.652344 169.320312 165.589844 168.824219 C 164.210938 168.597656 162.78125 168.347656 161.496094 168.894531 C 159.160156 169.890625 156.746094 170.140625 154.257812 170.164062 C 153.722656 170.164062 152.984375 170.140625 152.398438 171.136719 C 159.398438 170.164062 166.175781 170.519531 173.128906 169.796875 Z M 157.792969 172.207031 C 164.902344 172.933594 168.996094 172.648438 171.78125 171.125 C 166.304688 172.492188 160.734375 170.4375 154.839844 171.636719 C 155.996094 171.933594 156.710938 172.265625 157.792969 172.207031 Z M 157.792969 172.207031 " fill-opacity="1" fill-rule="nonzero"/><path fill="#000000" d="M 156.636719 148.429688 C 155.113281 150.410156 154.722656 152.550781 155.316406 154.878906 C 154.496094 154.878906 154.195312 154.472656 153.945312 154.046875 C 152.960938 152.382812 154.03125 148.488281 155.722656 147.539062 C 156.089844 147.335938 156.472656 147.179688 156.828125 147.453125 C 157.234375 147.761719 156.898438 148.058594 156.636719 148.429688 Z M 156.636719 148.429688 " fill-opacity="1" fill-rule="nonzero"/><path fill="#000000" d="M 117.40625 142.644531 C 116.539062 142.464844 116.253906 141.539062 115.394531 141.253906 C 114.097656 140.828125 113.300781 141.125 112.871094 142.417969 C 112.265625 144.308594 113.230469 146.597656 115.039062 147.527344 C 116.941406 148.511719 117.882812 150.054688 117.730469 151.980469 C 117.085938 152.230469 116.871094 151.777344 116.65625 151.316406 C 116.0625 149.984375 115.015625 149.210938 113.679688 148.605469 C 111.917969 147.796875 111.226562 146.125 111.074219 144.269531 C 110.941406 142.667969 111.039062 141.039062 112.597656 140.066406 C 114.5625 138.84375 116.621094 139.851562 117.46875 142.453125 C 117.46875 142.5625 117.417969 142.621094 117.394531 142.644531 Z M 117.40625 142.644531 " fill-opacity="1" fill-rule="nonzero"/><path fill="#000000" d="M 278.03125 187.886719 C 275.792969 185.640625 273.164062 184.0625 270.792969 182.136719 C 266.816406 178.90625 268.519531 174.179688 270.542969 171.269531 C 270.734375 170.996094 271.054688 170.984375 271.398438 171.292969 C 270.816406 172.125 270.53125 173.109375 270.136719 174.046875 C 268.816406 177.160156 269.542969 179.714844 272.363281 181.636719 C 274.4375 183.050781 276.496094 184.5 278.378906 186.164062 C 279.28125 186.960938 279.972656 187.910156 280.640625 188.894531 C 280.890625 189.277344 281.117188 189.65625 280.664062 190.203125 C 279.617188 189.679688 278.996094 188.644531 278.042969 187.875 Z M 278.03125 187.886719 " fill-opacity="1" fill-rule="nonzero"/><path fill="#000000" d="M 269.125 189.90625 C 268.589844 186.898438 267.386719 184.25 266.210938 181.601562 C 265.746094 180.570312 265.386719 179.535156 265.078125 178.230469 C 268.507812 181.675781 272.078125 189.761719 269.863281 193.3125 C 269.246094 192.257812 269.199219 191.140625 269.125 189.90625 Z M 269.125 189.90625 " fill-opacity="1" fill-rule="nonzero"/><path fill="#000000" d="M 267.113281 160.339844 C 266.375 161.839844 265.421875 162.859375 263.734375 162.941406 C 262.171875 163.027344 261.542969 162.5625 261.433594 160.972656 C 261.328125 159.472656 261.722656 158.027344 262.566406 156.777344 C 263.484375 155.414062 264.28125 155.328125 265.671875 156.242188 C 265.960938 156.433594 266.257812 156.613281 266.53125 156.824219 C 267.671875 157.789062 268.160156 158.867188 267.113281 160.328125 Z M 266.257812 159.414062 C 266.804688 158.074219 265.816406 157.46875 264.921875 157.050781 C 263.933594 156.589844 263.304688 157.277344 262.886719 158.179688 C 262.554688 158.90625 262.363281 159.675781 262.328125 160.460938 C 262.28125 161.695312 262.933594 162.113281 264.113281 161.777344 C 265.257812 161.457031 265.699219 160.53125 266.257812 159.425781 Z M 266.257812 159.414062 " fill-opacity="1" fill-rule="nonzero"/><path fill="#000000" d="M 261.28125 181.921875 C 258.246094 183.894531 255.125 185.273438 251.46875 185.167969 C 255.578125 183.847656 259.136719 181.351562 263.171875 179.855469 C 262.804688 180.796875 262.125 181.378906 261.292969 181.921875 Z M 261.28125 181.921875 " fill-opacity="1" fill-rule="nonzero"/><path fill="#000000" d="M 250.683594 191.53125 C 250.136719 191.6875 249.707031 191.816406 249.015625 191.402344 C 253.398438 189.953125 256.769531 186.828125 261.207031 185.902344 C 258.019531 188.277344 254.898438 190.773438 250.683594 191.542969 Z M 250.683594 191.53125 " fill-opacity="1" fill-rule="nonzero"/><path fill="#000000" d="M 256.363281 201.949219 C 255.398438 202.722656 254.828125 203.835938 253.53125 204.039062 C 254.980469 200.332031 258.171875 198.304688 261.195312 196.117188 C 260.28125 198.601562 258.148438 200.0625 256.351562 201.9375 Z M 256.363281 201.949219 " fill-opacity="1" fill-rule="nonzero"/><path fill="#000000" d="M 256.945312 195.726562 C 254.230469 197.164062 251.742188 198.800781 248.765625 199.417969 C 252.386719 196.664062 256.339844 194.515625 260.601562 192.886719 C 259.78125 194.289062 258.171875 194.667969 256.945312 195.714844 Z M 256.945312 195.726562 " fill-opacity="1" fill-rule="nonzero"/><path fill="#000000" d="M 265.363281 185.238281 C 265.792969 184.855469 265.984375 185.09375 266.007812 185.425781 C 266.234375 189.121094 265.699219 192.695312 264.066406 196.046875 C 263.945312 196.285156 263.757812 196.570312 263.160156 196.558594 C 263.886719 192.792969 264.613281 189.0625 265.375 185.238281 Z M 265.363281 185.238281 " fill-opacity="1" fill-rule="nonzero"/><path fill="#000000" d="M 256.183594 197.566406 C 257.183594 197.101562 258.101562 196.710938 259.230469 196.222656 C 258.292969 197.851562 250.816406 202.246094 248.933594 202.316406 C 251.171875 200.296875 253.71875 199.085938 256.183594 197.566406 Z M 256.183594 197.566406 " fill-opacity="1" fill-rule="nonzero"/><path fill="#000000" d="M 251.683594 183.679688 C 251.195312 183.65625 250.777344 183.824219 250.328125 183.253906 C 253.148438 182.480469 255.445312 180.320312 258.78125 180.925781 C 258.28125 181.960938 257.386719 181.828125 256.625 181.921875 C 255.71875 182.042969 255.003906 182.636719 254.183594 182.933594 C 253.398438 183.207031 252.589844 183.433594 251.683594 183.679688 Z M 251.683594 183.679688 " fill-opacity="1" fill-rule="nonzero"/><path fill="#000000" d="M 250.589844 188.136719 C 252.828125 186.863281 254.851562 185.390625 257.351562 184.917969 C 256.148438 186.246094 254.515625 186.910156 253.054688 187.816406 C 252.386719 188.230469 251.648438 188.550781 250.910156 188.8125 C 250.230469 189.050781 250.003906 188.824219 250.589844 188.136719 Z M 250.589844 188.136719 " fill-opacity="1" fill-rule="nonzero"/><path fill="#000000" d="M 268.101562 171.78125 C 267.234375 172.550781 266.410156 173.230469 265.484375 174 C 265.746094 172.003906 268.949219 169.167969 271.246094 168.808594 C 270.507812 170.175781 269.210938 170.804688 268.101562 171.769531 Z M 268.101562 171.78125 " fill-opacity="1" fill-rule="nonzero"/><path fill="#000000" d="M 250.828125 205.039062 C 251.316406 204.515625 251.671875 203.96875 252.566406 203.980469 C 251.816406 205.15625 250.839844 205.941406 249.777344 207.042969 C 249.660156 205.894531 250.289062 205.546875 250.828125 205.039062 Z M 250.828125 205.039062 " fill-opacity="1" fill-rule="nonzero"/></svg>